<svg xmlns="http://www.w3.org/2000/svg" width="31" height="44"><path fill="#a3bbc8" d="M14.597 43.81l-6.584-2.918-5.674 2.51a1.652 1.652 0 01-1.864-.355c-.49-.5-.613-1.23-.313-1.862l4.994-10.516a1.107 1.107 0 011.986-.023 1.1 1.1 0 01-.014 1.01L2.785 40.8l4.32-1.914a2.227 2.227 0 011.806.001l6.583 2.916h.011l6.585-2.917a2.222 2.222 0 011.804 0l4.32 1.914-4.342-9.145a1.093 1.093 0 01.174-1.275 1.107 1.107 0 011.798.288l4.994 10.518c.3.63.177 1.36-.313 1.86a1.648 1.648 0 01-1.863.356l-5.665-2.51-6.594 2.917a2.22 2.22 0 01-1.806 0zm-1.947-7.6L3.102 20.283A13.891 13.891 0 011.54 13.81c.023-3.642 1.464-7.083 4.06-9.689a13.903 13.903 0 019.702-4.12 13.897 13.897 0 019.999 4 13.76 13.76 0 014.158 9.893 13.691 13.691 0 01-1.562 6.39L18.349 36.21a3.293 3.293 0 01-2.849 1.61 3.294 3.294 0 01-2.85-1.61zm2.683-34.012C8.983 2.285 3.785 7.5 3.747 13.823a11.525 11.525 0 001.269 5.366l9.53 15.896c.29.487.764.54.954.54.19 0 .663-.053.955-.54l9.528-15.896a11.526 11.526 0 001.27-5.295 11.59 11.59 0 00-3.501-8.33 11.694 11.694 0 00-8.42-3.366zm-4.884 11.697c0-2.773 2.266-5.027 5.051-5.027s5.05 2.254 5.05 5.027c0 2.772-2.265 5.026-5.05 5.026-2.785 0-5.05-2.254-5.05-5.026zm2.206 0a2.842 2.842 0 002.845 2.83 2.84 2.84 0 002.844-2.83 2.84 2.84 0 00-2.844-2.831 2.841 2.841 0 00-2.845 2.83z"/></svg>