<svg xmlns="http://www.w3.org/2000/svg" viewBox="0 0 30 30"><path d="M27.871 12.207a13.207 13.207 0 00-1.793-4.336l1.277-1.644-3.582-3.582-1.644 1.277a13.207 13.207 0 00-4.336-1.793L17.535 0h-5.07l-.258 2.129a13.197 13.197 0 00-4.336 1.793L6.227 2.645 2.645 6.227 3.922 7.87a13.207 13.207 0 00-1.793 4.336L0 12.465v5.07l2.129.258a13.197 13.197 0 001.793 4.336l-1.277 1.644 3.582 3.582 1.644-1.277a13.197 13.197 0 004.336 1.793L12.465 30h5.07l.258-2.129a13.207 13.207 0 004.336-1.793l1.644 1.277 3.582-3.582-1.277-1.644a13.207 13.207 0 001.793-4.336L30 17.535v-5.07zm.371 3.773l-1.875.227-.105.652a11.29 11.29 0 01-1.985 4.793l-.382.532 1.12 1.445-1.386 1.387-1.445-1.121-.532.382a11.29 11.29 0 01-4.793 1.985l-.652.105-.227 1.875h-1.96l-.227-1.875-.652-.105a11.29 11.29 0 01-4.793-1.985l-.532-.382-1.445 1.12-1.387-1.386 1.121-1.445-.382-.532a11.29 11.29 0 01-1.985-4.793l-.105-.652-1.875-.227v-1.96l1.875-.227.105-.652a11.29 11.29 0 011.985-4.793l.382-.532-1.12-1.445L6.37 4.984l1.445 1.121.532-.382a11.29 11.29 0 014.793-1.985l.652-.105.227-1.875h1.96l.227 1.875.652.105c1.746.29 3.36.953 4.793 1.985l.532.382 1.445-1.12 1.387 1.386-1.121 1.445.382.532a11.29 11.29 0 011.985 4.793l.105.652 1.875.227zm0 0"/><path d="M11.484 7.09A2.64 2.64 0 009 8.848H7.09v1.757H9a2.64 2.64 0 002.484 1.758 2.64 2.64 0 002.485-1.758h8.941V8.848h-8.94a2.64 2.64 0 00-2.485-1.758zm0 3.515a.88.88 0 01-.879-.878.88.88 0 01.88-.88.88.88 0 01.878.88.88.88 0 01-.879.878zm7.032 1.758a2.64 2.64 0 00-2.485 1.758H7.09v1.758h8.941a2.64 2.64 0 002.485 1.758A2.64 2.64 0 0021 15.879h1.91V14.12H21a2.64 2.64 0 00-2.484-1.758zm0 3.516a.88.88 0 01-.88-.879.88.88 0 01.88-.879.88.88 0 01.879.879.88.88 0 01-.88.879zm-7.032 1.758A2.64 2.64 0 009 19.395H7.09v1.757H9a2.64 2.64 0 002.484 1.758 2.64 2.64 0 002.485-1.758h8.941v-1.757h-8.94a2.64 2.64 0 00-2.485-1.758zm0 3.515a.88.88 0 01-.879-.879.88.88 0 01.88-.878.88.88 0 01.878.878.88.88 0 01-.879.88zm0 0"/></svg>