<svg xmlns="http://www.w3.org/2000/svg" width="15" height="12"><path fill="#a1a1a1" d="M14.69 1.277a4.39 4.39 0 01-.332.45 5.57 5.57 0 01-1.072 1.015l-.05.093c.013.433-.007.867-.065 1.3a8.717 8.717 0 01-2.374 4.92 7.9 7.9 0 01-4.049 2.249 9.02 9.02 0 01-1.9.196A8.216 8.216 0 01.43 10.234l-.07-.043c.232.024.461.037.689.037a5.95 5.95 0 002.248-.438 5.825 5.825 0 001.4-.817c-1.52-.05-2.465-1.147-2.71-2.035.181.035.363.052.544.052.237 0 .474-.03.712-.085l.044-.022c-.827-.192-1.46-.631-1.894-1.344a2.856 2.856 0 01-.42-1.558c.414.22.841.34 1.302.351-.617-.444-1.029-1.031-1.193-1.777A2.887 2.887 0 011.417.432c1.57 1.87 3.57 2.897 6.021 3.066a8.282 8.282 0 00-.047-.323 2.84 2.84 0 01.448-1.914C8.311.526 8.98.07 9.835-.067c.182-.03.36-.045.533-.045.768 0 1.446.294 2.028.863.036.032.067.05.108.05a.175.175 0 00.045-.007 5.783 5.783 0 001.71-.652L14.3.12c-.214.68-.64 1.206-1.247 1.596a5.667 5.667 0 001.638-.439z"/></svg>