<svg viewBox="0 0 22 9">
  <path d="M.29601 5.47241l-.00813-.00229h16.95625l-.10048 2.85863c-.05424.05425-.084.12876-.084.20491 0 .07745.02975.15033.084.20458l.17258.17386c.05424.05392.12646.08366.20359.08366s.14946-.02974.2037-.08334l4.19231-4.21196c.05447-.05458.08423-.12778.08411-.20426.00011-.07713-.02964-.15066-.08411-.20426L17.72352.079c-.05424-.05327-.12657-.08301-.2037-.08301s-.14935.02974-.20359.08301l-.17258.17386c-.05424.05392-.084.12648-.084.20393 0 .07745.02975.14609.084.19936l.11307 2.86484H.29211c-.15884 0-.29228.13693-.29228.29642v1.36934c0 .15948.13733.28563.29617.28563z"/>
</svg>
