
<svg  width="20pt" height="20pt" viewBox="0 0 20 20" version="1.1">
<g id="surface1">
<path style=" stroke:none;fill-rule:nonzero;fill:rgb(0%,0%,0%);fill-opacity:1;" d="M 11.105469 10 L 19.769531 1.332031 C 20.078125 1.027344 20.078125 0.535156 19.769531 0.230469 C 19.464844 -0.078125 18.972656 -0.078125 18.667969 0.230469 L 10 8.894531 L 1.332031 0.230469 C 1.027344 -0.078125 0.535156 -0.078125 0.230469 0.230469 C -0.078125 0.535156 -0.078125 1.027344 0.230469 1.332031 L 8.894531 10 L 0.230469 18.667969 C -0.078125 18.972656 -0.078125 19.464844 0.230469 19.769531 C 0.382812 19.921875 0.582031 20 0.78125 20 C 0.980469 20 1.179688 19.921875 1.332031 19.769531 L 10 11.105469 L 18.667969 19.769531 C 18.820312 19.921875 19.019531 20 19.21875 20 C 19.417969 20 19.617188 19.921875 19.769531 19.769531 C 20.078125 19.464844 20.078125 18.972656 19.769531 18.667969 Z M 11.105469 10 "/>
</g>
</svg>
