<svg xmlns="http://www.w3.org/2000/svg" width="37" height="34" viewBox="0 0 37 34"><g><g><path fill="#fff" d="M.975 33.918a.958.958 0 0 1-.67-.272.93.93 0 0 1-.277-.659L0 12.786v-.017a.927.927 0 0 1 .41-.754L5.73 8.4V4.56a.94.94 0 0 1 .949-.932h6.067L17.963.083a.96.96 0 0 1 1.079.001l5.185 3.545h6.093a.94.94 0 0 1 .947.932v3.882l5.297 3.621c.19.13.316.315.373.519.021.046.034.13.034.184l.028 20.17a.94.94 0 0 1-.946.933l-35.077.048zm2.773-1.867l29.478-.041-14.712-11.224zm-1.828-.965l11.443-8.73-11.466-7.793zm21.72-8.748L35.1 31.082l-.023-16.565zM7.626 16.19l7.308 4.968 3-2.288a.96.96 0 0 1 1.16 0l2.977 2.272 7.301-4.993V5.493H7.626zm-5.013-3.408l3.118 2.12v-4.24zm28.654 2.072l3.028-2.07-3.028-2.07zM16.08 3.629h4.828L18.5 1.984zm-3.994 12.303a.94.94 0 0 1-.948-.933.94.94 0 0 1 .948-.932h12.83a.94.94 0 0 1 .946.932.94.94 0 0 1-.946.933zm0-4.847a.94.94 0 0 1-.948-.932.94.94 0 0 1 .948-.932h12.83a.94.94 0 0 1 .946.932.94.94 0 0 1-.946.932z"/></g></g></svg>