<svg xmlns="http://www.w3.org/2000/svg" width="9" height="16" viewBox="0 0 9 16"><g><g><path fill="#a1a1a1" d="M6.19.125c.413 0 .828.022 1.24.04.268.011.537.05.789.077l-.02 2.485h-.197c-.272 0-.545-.003-.818-.003-.204 0-.409.001-.613.008-.659.022-1.144.27-1.177 1.092-.021.592-.036 1.9-.037 1.97l1.34.001c.327 0 .647 0 .87-.002H8.1c-.133.955-.255 1.87-.388 2.792H5.357l-.053 6.971h-2.89l.053-6.982H.103l.021-2.776H2.5l.002-.208c.004-.56-.003-1.119.018-1.678.008-.351.027-.713.09-1.065.16-.85.555-1.563 1.267-2.073C4.499.33 5.208.144 5.96.127c.076-.002.153-.002.23-.002z"/></g></g></svg>