<svg viewBox="0 0 22 9">
  <path fill="#fff" d="M.29591 5.47196l-.00813-.00033h16.95625l-.10048 2.85765c-.05424.05392-.084.12713-.084.20491 0 .0768.02975.15066.084.20458l.17258.17256c.05413.05588.12634.08595.20359.08595.07702 0 .14946-.03007.2037-.08432l4.19231-4.2113c.05447-.05458.08411-.12778.08411-.20556 0-.0768-.02964-.15033-.08411-.20328L17.72342.07988c-.05424-.05327-.12669-.08366-.2037-.08366-.07725 0-.14946.03039-.20359.08366l-.17258.17354c-.05424.05523-.084.1268-.084.2036 0 .07745.02975.14609.084.20132l.11295 2.86418H.29189c-.15873 0-.29228.13595-.29228.29511v1.37c0 .15916.13744.28433.29629.28433z"/>
</svg>
