<svg xmlns="http://www.w3.org/2000/svg" width="18" height="17" viewBox="0 0 18 17"><g><g><path fill="#094074" d="M17.25 16.92a.59.59 0 0 1-.42-.174l-5.299-5.298a6.501 6.501 0 0 1-4.178 1.514A6.538 6.538 0 0 1 .822 6.43 6.54 6.54 0 0 1 7.353-.101c3.602 0 6.531 2.93 6.531 6.532a6.503 6.503 0 0 1-1.513 4.178l5.298 5.298a.591.591 0 0 1 0 .84.59.59 0 0 1-.42.173zM7.352 1.087A5.35 5.35 0 0 0 2.01 6.43a5.35 5.35 0 0 0 5.343 5.344 5.35 5.35 0 0 0 5.345-5.344 5.35 5.35 0 0 0-5.345-5.344z"/></g></g></svg>