<svg viewBox="0 0 7 12">
  <path fill="#262626" d="M1.33334 11.68678c-.14969 0-.29949-.06111-.41096-.18236-.10368-.11406-.1553-.25949-.1553-.40492 0-.15622.05939-.3108.17693-.42682l4.54697-4.47471L.94401 1.72391c-.11753-.11536-.17693-.2706-.17693-.42649 0-.1451.05161-.29086.1553-.40427.21561-.23629.57323-.24576.8004-.02288l4.97726 4.89794a.14107.14107 0 01.01385.01405c.04784.04902.08663.10654.11341.16831.00092 0 .00092.00033.00092.00033.0341.07778.0515.16145.0515.24446v.00261c0 .08562-.0174.17092-.05241.24936 0 .00065-.00103.00065-.00103.00065v.00196c-.02758.05915-.06454.11504-.11147.16373-.00458.00523-.01019.00915-.01476.01471l-4.97726 4.89826c-.10918.10817-.24937.16014-.38944.16014z"/>
</svg>
