<svg xmlns="http://www.w3.org/2000/svg" width="23" height="15" viewBox="0 0 23 15"><g><g><path fill="#888" d="M6.751 14.35c-1.409-.083-2.69-.525-3.823-1.36C1.466 11.911.545 10.474.158 8.7A6.496 6.496 0 0 1 .02 6.768a7.044 7.044 0 0 1 1.62-4.102C2.658 1.415 3.955.6 5.505.207a5.8 5.8 0 0 1 1.19-.186C6.922.013 7.15 0 7.378 0a6.741 6.741 0 0 1 3.398.932c.7.4 1.098.808 1.27.932-.717.705-1.405 1.395-2.108 2.086-.522-.45-1.099-.863-2.099-1.016a4.322 4.322 0 0 0-.613-.044c-2.007 0-3.688 1.45-4.136 3.353a3.942 3.942 0 0 0-.1 1.298c.153 1.768 1.337 3.218 2.935 3.736.407.128.83.189 1.254.189.1 0 .198-.003.298-.01.753-.048 1.459-.248 2.098-.67 1.075-.732 1.423-1.878 1.425-2.161H7.154l.021-2.77.007-.117h6.754c.364 2.107.036 4.323-1.275 6.056-.907 1.195-2.114 1.948-3.554 2.32a7.734 7.734 0 0 1-2.356.236zm11.439-4.054v-.07l.019-2.43h-2.507V7.72l.015-1.816v-.07h2.507l.018-2.437v-.069h1.962v.07l-.02 2.437h2.507v.069l-.014 1.816v.076H20.17l-.019 2.43v.07z"/></g></g></svg>