<svg xmlns="http://www.w3.org/2000/svg" width="74" height="60" viewBox="0 0 74 60"><g><g><path fill="#a3bbc8" d="M56.5 25.625c9.32 0 16.875 7.555 16.875 16.875S65.82 59.375 56.5 59.375 39.625 51.82 39.625 42.5 47.18 25.625 56.5 25.625z"/></g><g><path fill="#243f4d" d="M64 3.357v41.142a3.365 3.365 0 0 1-3.365 3.357H38.943l.877 7h3.634a1.073 1.073 0 0 1 0 2.143H20.546a1.073 1.073 0 1 1 0-2.143h3.633l.877-7H3.365A3.365 3.365 0 0 1 0 44.5V3.357A3.365 3.365 0 0 1 3.365 0h57.27A3.365 3.365 0 0 1 64 3.357zm-26.344 51.5l-.877-7h-9.558l-.877 7zm24.196-10.358V3.357c0-.67-.546-1.215-1.217-1.215H3.365c-.672 0-1.217.545-1.217 1.215v41.142c0 .67.545 1.215 1.217 1.215h57.27c.672 0 1.217-.545 1.217-1.215zM51.4 5.642c0 .592-.48 1.072-1.073 1.072H6.729V40h2.363c.593 0 1.074.48 1.074 1.07 0 .593-.48 1.072-1.074 1.072H5.655c-.593 0-1.073-.48-1.073-1.071V5.643c0-.592.48-1.072 1.073-1.072h44.672c.593 0 1.073.48 1.073 1.071zm8.018 0v35.429c0 .592-.48 1.071-1.074 1.071h-44.67c-.594 0-1.075-.48-1.075-1.071 0-.592.481-1.071 1.074-1.071h43.598V6.714h-2.363c-.593 0-1.074-.48-1.074-1.071 0-.592.481-1.072 1.074-1.072h3.436c.593 0 1.074.48 1.074 1.072zm-4.582 8a3.365 3.365 0 0 1-4.772 3.048l-8.604 9.09a3.33 3.33 0 0 1 .395 1.577 3.365 3.365 0 1 1-6.685-.542l-7.348-3.881a3.355 3.355 0 0 1-3.852.55l-8.406 8.14c.21.439.329.93.329 1.447a3.365 3.365 0 0 1-6.73 0 3.365 3.365 0 0 1 4.904-2.984l8.406-8.14a3.331 3.331 0 0 1-.328-1.447 3.365 3.365 0 1 1 6.684.541l7.348 3.882a3.355 3.355 0 0 1 3.722-.614l8.603-9.09a3.333 3.333 0 0 1-.395-1.576 3.365 3.365 0 0 1 6.73 0zM13.745 33.072a1.217 1.217 0 0 0-2.434 0 1.217 1.217 0 0 0 2.434 0zM26.726 20.5a1.217 1.217 0 0 0-2.434 0 1.217 1.217 0 0 0 2.434 0zm12.982 6.857a1.217 1.217 0 0 0-2.434 0 1.217 1.217 0 0 0 2.434 0zm12.981-13.714a1.217 1.217 0 0 0-2.434 0 1.217 1.217 0 0 0 2.434 0zm-.143 6.857v16c0 .591-.481 1.07-1.074 1.07-.593 0-1.074-.479-1.074-1.07v-16a1.073 1.073 0 0 1 2.148 0zm-25.963 6.857V36.5a1.073 1.073 0 0 1-2.148 0v-9.143c0-.592.481-1.072 1.074-1.072.593 0 1.074.48 1.074 1.072zm12.981 6.857V36.5a1.073 1.073 0 1 1-2.148 0v-2.286a1.073 1.073 0 0 1 2.148 0z"/></g></g></svg>